<?xml version="1.0" standalone="no"?>
<!DOCTYPE svg PUBLIC "-//W3C//DTD SVG 20010904//EN"
 "http://www.w3.org/TR/2001/REC-SVG-20010904/DTD/svg10.dtd">
<svg version="1.0" xmlns="http://www.w3.org/2000/svg"
 width="400.000000pt" height="400.000000pt" viewBox="0 0 400.000000 400.000000"
 preserveAspectRatio="xMidYMid meet">
<metadata>
Created by potrace 1.11, written by Peter Selinger 2001-2013
</metadata>
<g transform="translate(0.000000,400.000000) scale(0.100000,-0.100000)"
fill="#000000" stroke="none">
<path d="M180 3700 l0 -60 1770 0 1770 0 0 -1740 0 -1740 60 0 60 0 0 1800 0
1800 -1830 0 -1830 0 0 -60z"/>
<path d="M1025 3300 c-224 -41 -405 -189 -488 -400 -14 -36 -28 -81 -31 -100
-3 -19 -8 -46 -11 -60 -11 -54 -5 -219 10 -290 18 -80 79 -218 115 -260 56
-66 78 -88 120 -120 112 -88 226 -124 395 -124 144 -1 199 7 285 41 142 57
271 174 338 309 54 107 67 171 67 329 0 171 -13 233 -73 354 -46 92 -151 202
-237 248 -103 54 -186 74 -320 78 -66 2 -142 0 -170 -5z m290 -140 c247 -70
380 -274 369 -565 -12 -312 -225 -523 -527 -523 -322 0 -535 236 -522 578 6
167 51 278 154 381 105 104 216 147 376 147 53 -1 115 -8 150 -18z"/>
<path d="M2089 3228 c0 -77 0 -930 1 -1126 l0 -143 63 3 62 3 0 533 c0 292 1
532 3 532 3 0 121 -243 202 -415 56 -119 129 -272 209 -438 39 -81 71 -153 71
-158 0 -6 23 -9 56 -7 64 3 55 -8 143 178 55 117 86 182 227 478 31 64 83 172
115 240 32 67 59 122 61 122 2 0 3 -240 3 -533 l0 -532 59 -3 c33 -2 62 1 65
6 5 8 6 1281 2 1315 -1 4 -34 7 -73 7 l-73 0 -42 -88 c-43 -89 -155 -321 -295
-612 -44 -91 -103 -213 -131 -272 -28 -60 -54 -108 -57 -108 -3 0 -23 37 -44
83 -22 45 -89 183 -148 306 -59 123 -108 225 -108 226 0 1 -45 96 -101 211
-56 115 -105 219 -110 232 -8 20 -15 22 -84 22 l-75 0 -1 -62z"/>
<path d="M2645 1403 c-37 -87 -76 -176 -86 -198 -9 -22 -54 -125 -99 -230 -45
-104 -104 -239 -130 -300 -59 -135 -180 -415 -187 -432 -4 -10 14 -13 70 -13
l75 0 70 163 c39 89 78 179 87 200 l15 37 314 0 314 0 13 -32 c7 -18 24 -60
39 -93 14 -33 46 -108 71 -167 l44 -108 77 0 77 0 -16 37 c-42 102 -247 583
-264 620 -10 24 -19 45 -19 48 0 2 -11 28 -24 57 -14 29 -57 129 -96 222 -39
93 -79 187 -89 210 -10 22 -27 62 -37 88 l-19 48 -66 0 -66 0 -68 -157z m169
-108 c15 -38 34 -83 41 -100 51 -113 176 -427 173 -431 -3 -2 -120 -3 -261 -2
l-255 3 25 60 c13 33 32 78 42 100 10 22 58 134 106 248 49 114 91 204 95 200
4 -4 19 -39 34 -78z"/>
</g>
</svg>
